{
	"asset":{
		"generator":"Khronos glTF Blender I/O v4.2.60",
		"version":"2.0"
	},
	"scene":0,
	"scenes":[
		{
			"name":"Scene",
			"nodes":[
				13
			]
		}
	],
	"nodes":[
		{
			"name":"Bone"
		},
		{
			"name":"Bone.001",
			"translation":[
				0.6054112315177917,
				0,
				2.131559371948242
			]
		},
		{
			"name":"Bone.002",
			"translation":[
				1.42110276222229,
				0,
				2.131559371948242
			]
		},
		{
			"name":"Bone.003",
			"translation":[
				2.060995101928711,
				0,
				2.131559371948242
			]
		},
		{
			"name":"Bone.004",
			"translation":[
				2.951624870300293,
				0,
				2.131559371948242
			]
		},
		{
			"name":"Bone.005",
			"translation":[
				3.908426284790039,
				0,
				2.131559371948242
			]
		},
		{
			"name":"Bone.006",
			"translation":[
				-4.012876987457275,
				0,
				2.131559371948242
			]
		},
		{
			"name":"Bone.007",
			"translation":[
				-3.1971852779388428,
				0,
				2.131559371948242
			]
		},
		{
			"name":"Bone.008",
			"translation":[
				-2.557292938232422,
				0,
				2.131559371948242
			]
		},
		{
			"name":"Bone.009",
			"translation":[
				-1.6666631698608398,
				0,
				2.131559371948242
			]
		},
		{
			"name":"Bone.010",
			"translation":[
				-0.7098617553710938,
				0,
				2.131559371948242
			]
		},
		{
			"name":"Bone.011",
			"translation":[
				5.688962936401367,
				0,
				2.131559371948242
			]
		},
		{
			"mesh":0,
			"name":"Christmas_Tree",
			"skin":0
		},
		{
			"children":[
				12,
				0,
				1,
				2,
				3,
				4,
				5,
				6,
				7,
				8,
				9,
				10,
				11
			],
			"name":"Armature"
		}
	],
	"animations":[
		{
			"channels":[
				{
					"sampler":0,
					"target":{
						"node":0,
						"path":"translation"
					}
				},
				{
					"sampler":1,
					"target":{
						"node":0,
						"path":"rotation"
					}
				},
				{
					"sampler":2,
					"target":{
						"node":0,
						"path":"scale"
					}
				},
				{
					"sampler":3,
					"target":{
						"node":1,
						"path":"translation"
					}
				},
				{
					"sampler":4,
					"target":{
						"node":1,
						"path":"rotation"
					}
				},
				{
					"sampler":5,
					"target":{
						"node":1,
						"path":"scale"
					}
				},
				{
					"sampler":6,
					"target":{
						"node":2,
						"path":"translation"
					}
				},
				{
					"sampler":7,
					"target":{
						"node":2,
						"path":"rotation"
					}
				},
				{
					"sampler":8,
					"target":{
						"node":2,
						"path":"scale"
					}
				},
				{
					"sampler":9,
					"target":{
						"node":3,
						"path":"translation"
					}
				},
				{
					"sampler":10,
					"target":{
						"node":3,
						"path":"rotation"
					}
				},
				{
					"sampler":11,
					"target":{
						"node":3,
						"path":"scale"
					}
				},
				{
					"sampler":12,
					"target":{
						"node":4,
						"path":"translation"
					}
				},
				{
					"sampler":13,
					"target":{
						"node":4,
						"path":"rotation"
					}
				},
				{
					"sampler":14,
					"target":{
						"node":4,
						"path":"scale"
					}
				},
				{
					"sampler":15,
					"target":{
						"node":5,
						"path":"translation"
					}
				},
				{
					"sampler":16,
					"target":{
						"node":5,
						"path":"rotation"
					}
				},
				{
					"sampler":17,
					"target":{
						"node":5,
						"path":"scale"
					}
				},
				{
					"sampler":18,
					"target":{
						"node":6,
						"path":"translation"
					}
				},
				{
					"sampler":19,
					"target":{
						"node":6,
						"path":"rotation"
					}
				},
				{
					"sampler":20,
					"target":{
						"node":6,
						"path":"scale"
					}
				},
				{
					"sampler":21,
					"target":{
						"node":7,
						"path":"translation"
					}
				},
				{
					"sampler":22,
					"target":{
						"node":7,
						"path":"rotation"
					}
				},
				{
					"sampler":23,
					"target":{
						"node":7,
						"path":"scale"
					}
				},
				{
					"sampler":24,
					"target":{
						"node":8,
						"path":"translation"
					}
				},
				{
					"sampler":25,
					"target":{
						"node":8,
						"path":"rotation"
					}
				},
				{
					"sampler":26,
					"target":{
						"node":8,
						"path":"scale"
					}
				},
				{
					"sampler":27,
					"target":{
						"node":9,
						"path":"translation"
					}
				},
				{
					"sampler":28,
					"target":{
						"node":9,
						"path":"rotation"
					}
				},
				{
					"sampler":29,
					"target":{
						"node":9,
						"path":"scale"
					}
				},
				{
					"sampler":30,
					"target":{
						"node":10,
						"path":"translation"
					}
				},
				{
					"sampler":31,
					"target":{
						"node":10,
						"path":"rotation"
					}
				},
				{
					"sampler":32,
					"target":{
						"node":10,
						"path":"scale"
					}
				},
				{
					"sampler":33,
					"target":{
						"node":11,
						"path":"translation"
					}
				},
				{
					"sampler":34,
					"target":{
						"node":11,
						"path":"rotation"
					}
				},
				{
					"sampler":35,
					"target":{
						"node":11,
						"path":"scale"
					}
				}
			],
			"name":"TreeMagic",
			"samplers":[
				{
					"input":15,
					"interpolation":"STEP",
					"output":16
				},
				{
					"input":15,
					"interpolation":"STEP",
					"output":17
				},
				{
					"input":18,
					"interpolation":"LINEAR",
					"output":19
				},
				{
					"input":15,
					"interpolation":"STEP",
					"output":20
				},
				{
					"input":15,
					"interpolation":"STEP",
					"output":21
				},
				{
					"input":18,
					"interpolation":"LINEAR",
					"output":22
				},
				{
					"input":15,
					"interpolation":"STEP",
					"output":23
				},
				{
					"input":15,
					"interpolation":"STEP",
					"output":24
				},
				{
					"input":18,
					"interpolation":"LINEAR",
					"output":25
				},
				{
					"input":15,
					"interpolation":"STEP",
					"output":26
				},
				{
					"input":15,
					"interpolation":"STEP",
					"output":27
				},
				{
					"input":18,
					"interpolation":"LINEAR",
					"output":28
				},
				{
					"input":15,
					"interpolation":"STEP",
					"output":29
				},
				{
					"input":15,
					"interpolation":"STEP",
					"output":30
				},
				{
					"input":18,
					"interpolation":"LINEAR",
					"output":31
				},
				{
					"input":15,
					"interpolation":"STEP",
					"output":32
				},
				{
					"input":15,
					"interpolation":"STEP",
					"output":33
				},
				{
					"input":18,
					"interpolation":"LINEAR",
					"output":34
				},
				{
					"input":15,
					"interpolation":"STEP",
					"output":35
				},
				{
					"input":15,
					"interpolation":"STEP",
					"output":36
				},
				{
					"input":18,
					"interpolation":"LINEAR",
					"output":37
				},
				{
					"input":15,
					"interpolation":"STEP",
					"output":38
				},
				{
					"input":15,
					"interpolation":"STEP",
					"output":39
				},
				{
					"input":18,
					"interpolation":"LINEAR",
					"output":40
				},
				{
					"input":15,
					"interpolation":"STEP",
					"output":41
				},
				{
					"input":15,
					"interpolation":"STEP",
					"output":42
				},
				{
					"input":18,
					"interpolation":"LINEAR",
					"output":43
				},
				{
					"input":15,
					"interpolation":"STEP",
					"output":44
				},
				{
					"input":15,
					"interpolation":"STEP",
					"output":45
				},
				{
					"input":18,
					"interpolation":"LINEAR",
					"output":46
				},
				{
					"input":15,
					"interpolation":"STEP",
					"output":47
				},
				{
					"input":15,
					"interpolation":"STEP",
					"output":48
				},
				{
					"input":18,
					"interpolation":"LINEAR",
					"output":49
				},
				{
					"input":15,
					"interpolation":"STEP",
					"output":50
				},
				{
					"input":15,
					"interpolation":"STEP",
					"output":51
				},
				{
					"input":18,
					"interpolation":"LINEAR",
					"output":52
				}
			]
		}
	],
	"materials":[
		{
			"doubleSided":true,
			"name":"Christmas_Tree_Material",
			"pbrMetallicRoughness":{
				"baseColorTexture":{
					"index":0
				},
				"metallicFactor":0
			}
		},
		{
			"doubleSided":true,
			"name":"Balls",
			"pbrMetallicRoughness":{
				"baseColorTexture":{
					"index":1
				},
				"metallicFactor":0
			}
		}
	],
	"meshes":[
		{
			"name":"Mesh",
			"primitives":[
				{
					"attributes":{
						"POSITION":0,
						"NORMAL":1,
						"TEXCOORD_0":2,
						"TEXCOORD_1":3,
						"JOINTS_0":4,
						"WEIGHTS_0":5
					},
					"indices":6,
					"material":0
				},
				{
					"attributes":{
						"POSITION":7,
						"NORMAL":8,
						"TEXCOORD_0":9,
						"TEXCOORD_1":10,
						"JOINTS_0":11,
						"WEIGHTS_0":12
					},
					"indices":13,
					"material":1
				}
			]
		}
	],
	"textures":[
		{
			"sampler":0,
			"source":0
		},
		{
			"sampler":0,
			"source":1
		}
	],
	"images":[
		{
			"mimeType":"image/png",
			"name":"Christmas_Tree_BaseColor",
			"uri":"Christmas_Tree_BaseColor.png"
		},
		{
			"mimeType":"image/png",
			"name":"ChrismasBallText",
			"uri":"ChrismasBallText.png"
		}
	],
	"skins":[
		{
			"inverseBindMatrices":14,
			"joints":[
				0,
				1,
				2,
				3,
				4,
				5,
				6,
				7,
				8,
				9,
				10,
				11
			],
			"name":"Armature"
		}
	],
	"accessors":[
		{
			"bufferView":0,
			"componentType":5126,
			"count":895,
			"max":[
				557.23681640625,
				1519.4248046875,
				555.8458862304688
			],
			"min":[
				-556.769287109375,
				1.1814031495305244e-06,
				-555.8458862304688
			],
			"type":"VEC3"
		},
		{
			"bufferView":1,
			"componentType":5126,
			"count":895,
			"type":"VEC3"
		},
		{
			"bufferView":2,
			"componentType":5126,
			"count":895,
			"type":"VEC2"
		},
		{
			"bufferView":3,
			"componentType":5126,
			"count":895,
			"type":"VEC2"
		},
		{
			"bufferView":4,
			"componentType":5121,
			"count":895,
			"type":"VEC4"
		},
		{
			"bufferView":5,
			"componentType":5126,
			"count":895,
			"type":"VEC4"
		},
		{
			"bufferView":6,
			"componentType":5123,
			"count":1536,
			"type":"SCALAR"
		},
		{
			"bufferView":7,
			"componentType":5126,
			"count":1111,
			"max":[
				1.8797324895858765,
				0.2268655002117157,
				0.4217260181903839
			],
			"min":[
				-1.8934423923492432,
				-3.243237370043062e-05,
				0.22530296444892883
			],
			"type":"VEC3"
		},
		{
			"bufferView":8,
			"componentType":5126,
			"count":1111,
			"type":"VEC3"
		},
		{
			"bufferView":9,
			"componentType":5126,
			"count":1111,
			"type":"VEC2"
		},
		{
			"bufferView":10,
			"componentType":5126,
			"count":1111,
			"type":"VEC2"
		},
		{
			"bufferView":11,
			"componentType":5121,
			"count":1111,
			"type":"VEC4"
		},
		{
			"bufferView":12,
			"componentType":5126,
			"count":1111,
			"type":"VEC4"
		},
		{
			"bufferView":13,
			"componentType":5123,
			"count":5544,
			"type":"SCALAR"
		},
		{
			"bufferView":14,
			"componentType":5126,
			"count":12,
			"type":"MAT4"
		},
		{
			"bufferView":15,
			"componentType":5126,
			"count":2,
			"max":[
				6.4
			],
			"min":[
				0.03333333333333333
			],
			"type":"SCALAR"
		},
		{
			"bufferView":16,
			"componentType":5126,
			"count":2,
			"type":"VEC3"
		},
		{
			"bufferView":17,
			"componentType":5126,
			"count":2,
			"type":"VEC4"
		},
		{
			"bufferView":18,
			"componentType":5126,
			"count":192,
			"max":[
				6.4
			],
			"min":[
				0.03333333333333333
			],
			"type":"SCALAR"
		},
		{
			"bufferView":19,
			"componentType":5126,
			"count":192,
			"type":"VEC3"
		},
		{
			"bufferView":20,
			"componentType":5126,
			"count":2,
			"type":"VEC3"
		},
		{
			"bufferView":21,
			"componentType":5126,
			"count":2,
			"type":"VEC4"
		},
		{
			"bufferView":22,
			"componentType":5126,
			"count":192,
			"type":"VEC3"
		},
		{
			"bufferView":23,
			"componentType":5126,
			"count":2,
			"type":"VEC3"
		},
		{
			"bufferView":24,
			"componentType":5126,
			"count":2,
			"type":"VEC4"
		},
		{
			"bufferView":25,
			"componentType":5126,
			"count":192,
			"type":"VEC3"
		},
		{
			"bufferView":26,
			"componentType":5126,
			"count":2,
			"type":"VEC3"
		},
		{
			"bufferView":27,
			"componentType":5126,
			"count":2,
			"type":"VEC4"
		},
		{
			"bufferView":28,
			"componentType":5126,
			"count":192,
			"type":"VEC3"
		},
		{
			"bufferView":29,
			"componentType":5126,
			"count":2,
			"type":"VEC3"
		},
		{
			"bufferView":30,
			"componentType":5126,
			"count":2,
			"type":"VEC4"
		},
		{
			"bufferView":31,
			"componentType":5126,
			"count":192,
			"type":"VEC3"
		},
		{
			"bufferView":32,
			"componentType":5126,
			"count":2,
			"type":"VEC3"
		},
		{
			"bufferView":33,
			"componentType":5126,
			"count":2,
			"type":"VEC4"
		},
		{
			"bufferView":34,
			"componentType":5126,
			"count":192,
			"type":"VEC3"
		},
		{
			"bufferView":35,
			"componentType":5126,
			"count":2,
			"type":"VEC3"
		},
		{
			"bufferView":36,
			"componentType":5126,
			"count":2,
			"type":"VEC4"
		},
		{
			"bufferView":37,
			"componentType":5126,
			"count":192,
			"type":"VEC3"
		},
		{
			"bufferView":38,
			"componentType":5126,
			"count":2,
			"type":"VEC3"
		},
		{
			"bufferView":39,
			"componentType":5126,
			"count":2,
			"type":"VEC4"
		},
		{
			"bufferView":40,
			"componentType":5126,
			"count":192,
			"type":"VEC3"
		},
		{
			"bufferView":41,
			"componentType":5126,
			"count":2,
			"type":"VEC3"
		},
		{
			"bufferView":42,
			"componentType":5126,
			"count":2,
			"type":"VEC4"
		},
		{
			"bufferView":43,
			"componentType":5126,
			"count":192,
			"type":"VEC3"
		},
		{
			"bufferView":44,
			"componentType":5126,
			"count":2,
			"type":"VEC3"
		},
		{
			"bufferView":45,
			"componentType":5126,
			"count":2,
			"type":"VEC4"
		},
		{
			"bufferView":46,
			"componentType":5126,
			"count":192,
			"type":"VEC3"
		},
		{
			"bufferView":47,
			"componentType":5126,
			"count":2,
			"type":"VEC3"
		},
		{
			"bufferView":48,
			"componentType":5126,
			"count":2,
			"type":"VEC4"
		},
		{
			"bufferView":49,
			"componentType":5126,
			"count":192,
			"type":"VEC3"
		},
		{
			"bufferView":50,
			"componentType":5126,
			"count":2,
			"type":"VEC3"
		},
		{
			"bufferView":51,
			"componentType":5126,
			"count":2,
			"type":"VEC4"
		},
		{
			"bufferView":52,
			"componentType":5126,
			"count":192,
			"type":"VEC3"
		}
	],
	"bufferViews":[
		{
			"buffer":0,
			"byteLength":10740,
			"byteOffset":0,
			"target":34962
		},
		{
			"buffer":0,
			"byteLength":10740,
			"byteOffset":10740,
			"target":34962
		},
		{
			"buffer":0,
			"byteLength":7160,
			"byteOffset":21480,
			"target":34962
		},
		{
			"buffer":0,
			"byteLength":7160,
			"byteOffset":28640,
			"target":34962
		},
		{
			"buffer":0,
			"byteLength":3580,
			"byteOffset":35800,
			"target":34962
		},
		{
			"buffer":0,
			"byteLength":14320,
			"byteOffset":39380,
			"target":34962
		},
		{
			"buffer":0,
			"byteLength":3072,
			"byteOffset":53700,
			"target":34963
		},
		{
			"buffer":0,
			"byteLength":13332,
			"byteOffset":56772,
			"target":34962
		},
		{
			"buffer":0,
			"byteLength":13332,
			"byteOffset":70104,
			"target":34962
		},
		{
			"buffer":0,
			"byteLength":8888,
			"byteOffset":83436,
			"target":34962
		},
		{
			"buffer":0,
			"byteLength":8888,
			"byteOffset":92324,
			"target":34962
		},
		{
			"buffer":0,
			"byteLength":4444,
			"byteOffset":101212,
			"target":34962
		},
		{
			"buffer":0,
			"byteLength":17776,
			"byteOffset":105656,
			"target":34962
		},
		{
			"buffer":0,
			"byteLength":11088,
			"byteOffset":123432,
			"target":34963
		},
		{
			"buffer":0,
			"byteLength":768,
			"byteOffset":134520
		},
		{
			"buffer":0,
			"byteLength":8,
			"byteOffset":135288
		},
		{
			"buffer":0,
			"byteLength":24,
			"byteOffset":135296
		},
		{
			"buffer":0,
			"byteLength":32,
			"byteOffset":135320
		},
		{
			"buffer":0,
			"byteLength":768,
			"byteOffset":135352
		},
		{
			"buffer":0,
			"byteLength":2304,
			"byteOffset":136120
		},
		{
			"buffer":0,
			"byteLength":24,
			"byteOffset":138424
		},
		{
			"buffer":0,
			"byteLength":32,
			"byteOffset":138448
		},
		{
			"buffer":0,
			"byteLength":2304,
			"byteOffset":138480
		},
		{
			"buffer":0,
			"byteLength":24,
			"byteOffset":140784
		},
		{
			"buffer":0,
			"byteLength":32,
			"byteOffset":140808
		},
		{
			"buffer":0,
			"byteLength":2304,
			"byteOffset":140840
		},
		{
			"buffer":0,
			"byteLength":24,
			"byteOffset":143144
		},
		{
			"buffer":0,
			"byteLength":32,
			"byteOffset":143168
		},
		{
			"buffer":0,
			"byteLength":2304,
			"byteOffset":143200
		},
		{
			"buffer":0,
			"byteLength":24,
			"byteOffset":145504
		},
		{
			"buffer":0,
			"byteLength":32,
			"byteOffset":145528
		},
		{
			"buffer":0,
			"byteLength":2304,
			"byteOffset":145560
		},
		{
			"buffer":0,
			"byteLength":24,
			"byteOffset":147864
		},
		{
			"buffer":0,
			"byteLength":32,
			"byteOffset":147888
		},
		{
			"buffer":0,
			"byteLength":2304,
			"byteOffset":147920
		},
		{
			"buffer":0,
			"byteLength":24,
			"byteOffset":150224
		},
		{
			"buffer":0,
			"byteLength":32,
			"byteOffset":150248
		},
		{
			"buffer":0,
			"byteLength":2304,
			"byteOffset":150280
		},
		{
			"buffer":0,
			"byteLength":24,
			"byteOffset":152584
		},
		{
			"buffer":0,
			"byteLength":32,
			"byteOffset":152608
		},
		{
			"buffer":0,
			"byteLength":2304,
			"byteOffset":152640
		},
		{
			"buffer":0,
			"byteLength":24,
			"byteOffset":154944
		},
		{
			"buffer":0,
			"byteLength":32,
			"byteOffset":154968
		},
		{
			"buffer":0,
			"byteLength":2304,
			"byteOffset":155000
		},
		{
			"buffer":0,
			"byteLength":24,
			"byteOffset":157304
		},
		{
			"buffer":0,
			"byteLength":32,
			"byteOffset":157328
		},
		{
			"buffer":0,
			"byteLength":2304,
			"byteOffset":157360
		},
		{
			"buffer":0,
			"byteLength":24,
			"byteOffset":159664
		},
		{
			"buffer":0,
			"byteLength":32,
			"byteOffset":159688
		},
		{
			"buffer":0,
			"byteLength":2304,
			"byteOffset":159720
		},
		{
			"buffer":0,
			"byteLength":24,
			"byteOffset":162024
		},
		{
			"buffer":0,
			"byteLength":32,
			"byteOffset":162048
		},
		{
			"buffer":0,
			"byteLength":2304,
			"byteOffset":162080
		}
	],
	"samplers":[
		{
			"magFilter":9729,
			"minFilter":9987
		}
	],
	"buffers":[
		{
			"byteLength":164384,
			"uri":"Tree.bin"
		}
	]
}
