{
	"asset":{
		"generator":"Khronos glTF Blender I/O v4.2.60",
		"version":"2.0"
	},
	"scene":0,
	"scenes":[
		{
			"name":"Scene",
			"nodes":[
				0
			]
		}
	],
	"nodes":[
		{
			"mesh":0,
			"name":"Christmas_Tree",
			"rotation":[
				0,
				0.7071068286895752,
				0,
				0.7071068286895752
			],
			"scale":[
				500,
				500,
				500
			]
		}
	],
	"animations":[
		{
			"channels":[
				{
					"sampler":0,
					"target":{
						"node":0,
						"path":"translation"
					}
				},
				{
					"sampler":1,
					"target":{
						"node":0,
						"path":"rotation"
					}
				},
				{
					"sampler":2,
					"target":{
						"node":0,
						"path":"scale"
					}
				}
			],
			"name":"Christmas_TreeAction.001",
			"samplers":[
				{
					"input":10,
					"interpolation":"STEP",
					"output":11
				},
				{
					"input":12,
					"interpolation":"LINEAR",
					"output":13
				},
				{
					"input":10,
					"interpolation":"STEP",
					"output":14
				}
			]
		}
	],
	"materials":[
		{
			"doubleSided":true,
			"name":"Christmas_Tree_Material",
			"pbrMetallicRoughness":{
				"baseColorTexture":{
					"index":0
				},
				"metallicFactor":0
			}
		},
		{
			"doubleSided":true,
			"name":"Balls",
			"pbrMetallicRoughness":{
				"baseColorTexture":{
					"index":1
				},
				"metallicFactor":0
			}
		}
	],
	"meshes":[
		{
			"name":"Mesh",
			"primitives":[
				{
					"attributes":{
						"POSITION":0,
						"NORMAL":1,
						"TEXCOORD_0":2,
						"TEXCOORD_1":3
					},
					"indices":4,
					"material":0
				},
				{
					"attributes":{
						"POSITION":5,
						"NORMAL":6,
						"TEXCOORD_0":7,
						"TEXCOORD_1":8
					},
					"indices":9,
					"material":1
				}
			]
		}
	],
	"textures":[
		{
			"sampler":0,
			"source":0
		},
		{
			"sampler":0,
			"source":1
		}
	],
	"images":[
		{
			"mimeType":"image/png",
			"name":"Christmas_Tree_BaseColor",
			"uri":"Christmas_Tree_BaseColor.png"
		},
		{
			"mimeType":"image/png",
			"name":"ChrismasBallText",
			"uri":"ChrismasBallText.png"
		}
	],
	"accessors":[
		{
			"bufferView":0,
			"componentType":5126,
			"count":895,
			"max":[
				1.114473581314087,
				3.0388495922088623,
				1.1116918325424194
			],
			"min":[
				-1.1135386228561401,
				2.362806394984318e-09,
				-1.1116918325424194
			],
			"type":"VEC3"
		},
		{
			"bufferView":1,
			"componentType":5126,
			"count":895,
			"type":"VEC3"
		},
		{
			"bufferView":2,
			"componentType":5126,
			"count":895,
			"type":"VEC2"
		},
		{
			"bufferView":3,
			"componentType":5126,
			"count":895,
			"type":"VEC2"
		},
		{
			"bufferView":4,
			"componentType":5123,
			"count":1536,
			"type":"SCALAR"
		},
		{
			"bufferView":5,
			"componentType":5126,
			"count":1111,
			"max":[
				0.0037594649475067854,
				0.00045373098691925406,
				0.0008434520568698645
			],
			"min":[
				-0.0037868847139179707,
				-6.48647500156585e-08,
				0.0004506059340201318
			],
			"type":"VEC3"
		},
		{
			"bufferView":6,
			"componentType":5126,
			"count":1111,
			"type":"VEC3"
		},
		{
			"bufferView":7,
			"componentType":5126,
			"count":1111,
			"type":"VEC2"
		},
		{
			"bufferView":8,
			"componentType":5126,
			"count":1111,
			"type":"VEC2"
		},
		{
			"bufferView":9,
			"componentType":5123,
			"count":5544,
			"type":"SCALAR"
		},
		{
			"bufferView":10,
			"componentType":5126,
			"count":2,
			"max":[
				4
			],
			"min":[
				0.041666666666666664
			],
			"type":"SCALAR"
		},
		{
			"bufferView":11,
			"componentType":5126,
			"count":2,
			"type":"VEC3"
		},
		{
			"bufferView":12,
			"componentType":5126,
			"count":96,
			"max":[
				4
			],
			"min":[
				0.041666666666666664
			],
			"type":"SCALAR"
		},
		{
			"bufferView":13,
			"componentType":5126,
			"count":96,
			"type":"VEC4"
		},
		{
			"bufferView":14,
			"componentType":5126,
			"count":2,
			"type":"VEC3"
		}
	],
	"bufferViews":[
		{
			"buffer":0,
			"byteLength":10740,
			"byteOffset":0,
			"target":34962
		},
		{
			"buffer":0,
			"byteLength":10740,
			"byteOffset":10740,
			"target":34962
		},
		{
			"buffer":0,
			"byteLength":7160,
			"byteOffset":21480,
			"target":34962
		},
		{
			"buffer":0,
			"byteLength":7160,
			"byteOffset":28640,
			"target":34962
		},
		{
			"buffer":0,
			"byteLength":3072,
			"byteOffset":35800,
			"target":34963
		},
		{
			"buffer":0,
			"byteLength":13332,
			"byteOffset":38872,
			"target":34962
		},
		{
			"buffer":0,
			"byteLength":13332,
			"byteOffset":52204,
			"target":34962
		},
		{
			"buffer":0,
			"byteLength":8888,
			"byteOffset":65536,
			"target":34962
		},
		{
			"buffer":0,
			"byteLength":8888,
			"byteOffset":74424,
			"target":34962
		},
		{
			"buffer":0,
			"byteLength":11088,
			"byteOffset":83312,
			"target":34963
		},
		{
			"buffer":0,
			"byteLength":8,
			"byteOffset":94400
		},
		{
			"buffer":0,
			"byteLength":24,
			"byteOffset":94408
		},
		{
			"buffer":0,
			"byteLength":384,
			"byteOffset":94432
		},
		{
			"buffer":0,
			"byteLength":1536,
			"byteOffset":94816
		},
		{
			"buffer":0,
			"byteLength":24,
			"byteOffset":96352
		}
	],
	"samplers":[
		{
			"magFilter":9729,
			"minFilter":9987
		}
	],
	"buffers":[
		{
			"byteLength":96376,
			"uri":"Test.bin"
		}
	]
}
